<svg viewBox="0 0 109.05 54.763" xmlns="http://www.w3.org/2000/svg"><g transform="translate(-11.3399 -25.256)"><path d="M13.545 25.256v2.205H11.34v17.6385h2.205v2.205h6.6145v4.4095h6.6145v-2.205h-2.205v-4.4095h2.205V27.461h-2.205v-2.205zm2.2045 2.205h6.6145v15.4335h-2.2045V40.69h-2.205v4.4095h-2.205zm25.2674 1.3668v2.205h2.205v-2.205zm14.3317 0v1.1023h1.1023v8.8195h-1.1023v1.1022h3.3073v-3.3072h1.1022v1.1027h1.1023v2.2045h2.205v-2.2045H61.963v-1.1027h-1.1027V34.34h1.1027v-1.1028h1.1023v-1.1022h-2.205v1.1022H59.758v1.1028H58.656v-5.5123zm-26.458 3.3073v6.6145h1.1023v1.1022H33.3v-1.1022h-2.205V32.135zm4.4095 6.6145h1.1023v1.1022h2.205v-1.1022H35.505V32.135h-2.205zm6.6145-6.6145v1.1022h1.1023v5.5123h-1.1023v1.1022h4.4095v-1.1022H43.222V32.135zm7.7168 0v1.1022H46.529v5.5123h1.1023v1.1022h5.5122v-1.1022h1.1023v-1.1023h-2.2045v1.1023h-3.3073v-5.5123h3.3073v1.1028h2.2045v-1.1028h-1.1023v-1.1022z" fill="red"/><path d="M78.588 43.597v1.1023h1.1023v2.205h-2.2045v1.1023H76.383v1.1028h-1.1023v4.4096h1.1023v1.1023h3.3073V53.519h-2.2045v-4.4096h1.1023v-1.1028h1.1023v5.5123h1.1028v1.1023h2.2045v-1.1023h-1.1023V43.597zm-45.379.1323v2.205h-2.205v4.4096h2.205v2.205h2.2045v2.2045h4.4101v2.205h2.2045v6.6146h-6.6146v-4.4096H31.004v4.4096h2.205v2.205h11.024v-2.205h2.205v-6.6146h-2.205v-2.205h-2.205v-2.2045h-4.4095v-2.205h-2.205v-4.4096h6.6146v4.4096h4.4101v-4.4096h-2.205v-2.205zm16.715 3.175v1.1023h-1.1023v5.5123h1.1023v1.1023h5.5123v-1.1023h1.1023v-5.5123h-1.1023v-1.1023zm7.7174 0v6.6146h1.1023v1.1023h3.3073v-1.1023h-2.205v-6.6146zm4.4096 6.6146h1.1023v1.1023h2.205v-1.1023H64.256v-6.6146h-2.205zm4.4095-6.6146v1.1023h1.1028v6.6146h2.2045v-6.6146h-1.1023v-1.1023zm3.3073 1.1023h2.205v6.6146h2.205v-6.6146H73.075v-1.1023h-3.3073zm-18.741 0h3.3073v5.5123h-3.3073z" fill="#00A0ff"/><path d="M50.669 57.97v2.2045h2.2045v17.639H50.669v2.2045h6.6146V68.994h2.2045v2.205h2.205v8.8191h4.4095V71.199h-2.2045v-4.4101h2.2045v-6.6146h-2.2045v-2.2045zm6.6146 2.2045h4.4096v6.6146h-4.4096zm12.397 1.4996v1.1023h-1.1023v5.5123h1.1023v1.1023h5.5123v-1.1023h1.1023v-1.1028h-2.205v1.1028h-3.3073v-3.3073h5.5123v-2.205h-1.1023v-1.1023zm7.7168 0v7.7168h2.205v-5.5123h1.1023v4.4101h1.1028v-4.4101h1.1023v5.5123h2.205v-6.6146H84.012V61.674h-2.2045v1.1023h-1.1028V61.674zm9.9219 0v1.1023H86.217v5.5123h1.1023v1.1023h5.5123v-1.1023h1.1023v-5.5123h-1.1023v-1.1023zm8.8196 0v5.5118h1.1023v1.1028h1.1023v1.1023h2.205v-1.1023h1.1023v-1.1028h1.1028v-5.5118h-2.205v5.5118h-2.205v-5.5118zm8.8191 0v1.1023h-1.1023v5.5123h1.1023v1.1023h5.5123v-1.1023h1.1022v-1.1028h-2.2045v1.1028h-3.3073v-3.3073h5.5118v-2.205h-1.1022v-1.1023zm7.7174 0v1.1023h1.1023v5.5123h-1.1023v1.1023h4.4096v-1.1023h-1.1023v-4.4101h1.1023v-1.1023h1.1023v2.205h2.205v-2.205H119.29V61.674h-3.3073v1.1023h-1.1028V61.674zm-41.893 1.1023h3.3073v1.1023h-3.3073zm17.639 0h3.3073v5.5123h-3.3073zm17.639 0h3.3073v1.1023h-3.3073z" fill="#0F0"/></g></svg>